HIERARCHY
ROOT Hips
{
  OFFSET 0.000000 95.000000 0.000000
  CHANNELS 6 Xposition Yposition Zposition Zrotation Xrotation Yrotation
  JOINT Spine
  {
    OFFSET 0.000000 10.000000 0.000000
    CHANNELS 3 Zrotation Xrotation Yrotation
    JOINT Spine1
    {
      OFFSET 0.000000 12.000000 0.000000
      CHANNELS 3 Zrotation Xrotation Yrotation
      JOINT Spine2
      {
        OFFSET 0.000000 12.000000 0.000000
        CHANNELS 3 Zrotation Xrotation Yrotation
        JOINT Neck
        {
          OFFSET 0.000000 10.000000 0.000000
          CHANNELS 3 Zrotation Xrotation Yrotation
          JOINT Head
          {
            OFFSET 0.000000 8.000000 0.000000
            CHANNELS 3 Zrotation Xrotation Yrotation
            End Site
            {
              OFFSET 0.000000 10.000000 0.000000
            }
          }
        }
        JOINT LeftShoulder
        {
          OFFSET 6.000000 8.000000 0.000000
          CHANNELS 3 Zrotation Xrotation Yrotation
          JOINT LeftArm
          {
            OFFSET 12.000000 0.000000 0.000000
            CHANNELS 3 Zrotation Xrotation Yrotation
            JOINT LeftForeArm
            {
              OFFSET 24.000000 0.000000 0.000000
              CHANNELS 3 Zrotation Xrotation Yrotation
              JOINT LeftHand
              {
                OFFSET 22.000000 0.000000 0.000000
                CHANNELS 3 Zrotation Xrotation Yrotation
                JOINT LeftHandThumb1
                {
                  OFFSET 1.800000 -1.400000 0.500000
                  CHANNELS 3 Zrotation Xrotation Yrotation
                  JOINT LeftHandThumb2
                  {
                    OFFSET 2.400000 0.000000 0.000000
                    CHANNELS 3 Zrotation Xrotation Yrotation
                    JOINT LeftHandThumb3
                    {
                      OFFSET 1.900000 0.000000 0.000000
                      CHANNELS 3 Zrotation Xrotation Yrotation
                      End Site
                      {
                        OFFSET 1.600000 0.000000 0.000000
                      }
                    }
                  }
                }
                JOINT LeftHandIndex1
                {
                  OFFSET 6.600000 1.200000 0.300000
                  CHANNELS 3 Zrotation Xrotation Yrotation
                  JOINT LeftHandIndex2
                  {
                    OFFSET 2.000000 0.000000 0.000000
                    CHANNELS 3 Zrotation Xrotation Yrotation
                    JOINT LeftHandIndex3
                    {
                      OFFSET 1.200000 0.000000 0.000000
                      CHANNELS 3 Zrotation Xrotation Yrotation
                      End Site
                      {
                        OFFSET 1.000000 0.000000 0.000000
                      }
                    }
                  }
                }
                JOINT LeftHandMiddle1
                {
                  OFFSET 7.200000 0.000000 0.300000
                  CHANNELS 3 Zrotation Xrotation Yrotation
                  JOINT LeftHandMiddle2
                  {
                    OFFSET 3.000000 0.000000 0.000000
                    CHANNELS 3 Zrotation Xrotation Yrotation
                    JOINT LeftHandMiddle3
                    {
                      OFFSET 2.000000 0.000000 0.000000
                      CHANNELS 3 Zrotation Xrotation Yrotation
                      End Site
                      {
                        OFFSET 1.600000 0.000000 0.000000
                      }
                    }
                  }
                }
                JOINT LeftHandRing1
                {
                  OFFSET 7.100000 -1.000000 0.400000
                  CHANNELS 3 Zrotation Xrotation Yrotation
                  JOINT LeftHandRing2
                  {
                    OFFSET 2.600000 0.000000 0.000000
                    CHANNELS 3 Zrotation Xrotation Yrotation
                    JOINT LeftHandRing3
                    {
                      OFFSET 1.600000 0.000000 0.000000
                      CHANNELS 3 Zrotation Xrotation Yrotation
                      End Site
                      {
                        OFFSET 1.300000 0.000000 0.000000
                      }
                    }
                  }
                }
                JOINT LeftHandPinky1
                {
                  OFFSET 6.500000 -2.000000 0.500000
                  CHANNELS 3 Zrotation Xrotation Yrotation
                  JOINT LeftHandPinky2
                  {
                    OFFSET 1.900000 0.000000 0.000000
                    CHANNELS 3 Zrotation Xrotation Yrotation
                    JOINT LeftHandPinky3
                    {
                      OFFSET 1.400000 0.000000 0.000000
                      CHANNELS 3 Zrotation Xrotation Yrotation
                      End Site
                      {
                        OFFSET 1.300000 0.000000 0.000000
                      }
                    }
                  }
                }
              }
            }
          }
        }
        JOINT RightShoulder
        {
          OFFSET -6.000000 8.000000 0.000000
          CHANNELS 3 Zrotation Xrotation Yrotation
          JOINT RightArm
          {
            OFFSET -12.000000 0.000000 0.000000
            CHANNELS 3 Zrotation Xrotation Yrotation
            JOINT RightForeArm
            {
              OFFSET -24.000000 0.000000 0.000000
              CHANNELS 3 Zrotation Xrotation Yrotation
              JOINT RightHand
              {
                OFFSET -22.000000 0.000000 0.000000
                CHANNELS 3 Zrotation Xrotation Yrotation
                JOINT RightHandThumb1
                {
                  OFFSET -1.800000 -1.400000 0.500000
                  CHANNELS 3 Zrotation Xrotation Yrotation
                  JOINT RightHandThumb2
                  {
                    OFFSET -2.400000 0.000000 0.000000
                    CHANNELS 3 Zrotation Xrotation Yrotation
                    JOINT RightHandThumb3
                    {
                      OFFSET -1.900000 0.000000 0.000000
                      CHANNELS 3 Zrotation Xrotation Yrotation
                      End Site
                      {
                        OFFSET -1.600000 0.000000 0.000000
                      }
                    }
                  }
                }
                JOINT RightHandIndex1
                {
                  OFFSET -6.600000 1.200000 0.300000
                  CHANNELS 3 Zrotation Xrotation Yrotation
                  JOINT RightHandIndex2
                  {
                    OFFSET -2.000000 0.000000 0.000000
                    CHANNELS 3 Zrotation Xrotation Yrotation
                    JOINT RightHandIndex3
                    {
                      OFFSET -1.200000 0.000000 0.000000
                      CHANNELS 3 Zrotation Xrotation Yrotation
                      End Site
                      {
                        OFFSET -1.000000 0.000000 0.000000
                      }
                    }
                  }
                }
                JOINT RightHandMiddle1
                {
                  OFFSET -7.200000 0.000000 0.300000
                  CHANNELS 3 Zrotation Xrotation Yrotation
                  JOINT RightHandMiddle2
                  {
                    OFFSET -3.000000 0.000000 0.000000
                    CHANNELS 3 Zrotation Xrotation Yrotation
                    JOINT RightHandMiddle3
                    {
                      OFFSET -2.000000 0.000000 0.000000
                      CHANNELS 3 Zrotation Xrotation Yrotation
                      End Site
                      {
                        OFFSET -1.600000 0.000000 0.000000
                      }
                    }
                  }
                }
                JOINT RightHandRing1
                {
                  OFFSET -7.100000 -1.000000 0.400000
                  CHANNELS 3 Zrotation Xrotation Yrotation
                  JOINT RightHandRing2
                  {
                    OFFSET -2.600000 0.000000 0.000000
                    CHANNELS 3 Zrotation Xrotation Yrotation
                    JOINT RightHandRing3
                    {
                      OFFSET -1.600000 0.000000 0.000000
                      CHANNELS 3 Zrotation Xrotation Yrotation
                      End Site
                      {
                        OFFSET -1.300000 0.000000 0.000000
                      }
                    }
                  }
                }
                JOINT RightHandPinky1
                {
                  OFFSET -6.500000 -2.000000 0.500000
                  CHANNELS 3 Zrotation Xrotation Yrotation
                  JOINT RightHandPinky2
                  {
                    OFFSET -1.900000 0.000000 0.000000
                    CHANNELS 3 Zrotation Xrotation Yrotation
                    JOINT RightHandPinky3
                    {
                      OFFSET -1.400000 0.000000 0.000000
                      CHANNELS 3 Zrotation Xrotation Yrotation
                      End Site
                      {
                        OFFSET -1.300000 0.000000 0.000000
                      }
                    }
                  }
                }
              }
            }
          }
        }
      }
    }
  }
  JOINT LeftUpLeg
  {
    OFFSET 10.000000 -5.000000 0.000000
    CHANNELS 3 Zrotation Xrotation Yrotation
    JOINT LeftLeg
    {
      OFFSET 0.000000 -42.000000 0.000000
      CHANNELS 3 Zrotation Xrotation Yrotation
      JOINT LeftFoot
      {
        OFFSET 0.000000 -42.000000 4.000000
        CHANNELS 3 Zrotation Xrotation Yrotation
        End Site
        {
          OFFSET 0.000000 0.000000 12.000000
        }
      }
    }
  }
  JOINT RightUpLeg
  {
    OFFSET -10.000000 -5.000000 0.000000
    CHANNELS 3 Zrotation Xrotation Yrotation
    JOINT RightLeg
    {
      OFFSET 0.000000 -42.000000 0.000000
      CHANNELS 3 Zrotation Xrotation Yrotation
      JOINT RightFoot
      {
        OFFSET 0.000000 -42.000000 4.000000
        CHANNELS 3 Zrotation Xrotation Yrotation
        End Site
        {
          OFFSET 0.000000 0.000000 12.000000
        }
      }
    }
  }
}
MOTION
Frames: 6
Frame Time: 0.033333
0.0000 95.0000 0.0000 0.0000 0.0000 0.0000 0.0000 0.0000 0.0000 0.0000 0.0000 0.0000 0.0000 0.0000 0.0000 0.0000 0.0000 0.0000 0.0000 0.0000 0.0000 0.0000 0.0000 0.0000 -79.3853 2.9492 3.5529 -9.8562 -5.3509 8.3543 11.7554 -10.8600 -157.5189 68.0104 -14.0504 -0.8194 24.9504 0.0000 0.0000 10.4558 0.0000 0.0000 -20.0060 0.9667 -15.5347 3.5577 0.0000 0.0000 2.4356 0.0000 0.0000 -11.7792 -1.0341 -14.7712 2.6628 0.0000 0.0000 0.0997 0.0000 0.0000 -5.3895 -2.4281 -14.4696 5.0174 0.0000 0.0000 1.6345 0.0000 0.0000 -0.1563 -3.5044 -11.4258 4.7249 0.0000 0.0000 2.0788 0.0000 0.0000 0.0000 0.0000 0.0000 89.9299 -0.8739 0.8749 -1.8049 10.5113 10.1574 179.8908 6.2504 -24.7298 -58.3703 -11.8810 -3.5467 14.1352 0.0000 0.0000 3.2462 0.0000 0.0000 15.9669 0.6124 -2.4799 4.1316 0.0000 0.0000 3.6767 0.0000 0.0000 6.7263 0.5285 -4.2034 3.7032 0.0000 0.0000 1.9054 0.0000 0.0000 -0.1813 0.6248 -4.5486 0.8301 0.0000 0.0000 2.7607 0.0000 0.0000 -7.2664 0.5404 -4.5390 3.9932 0.0000 0.0000 3.2715 0.0000 0.0000 0.0000 0.0000 0.0000 0.0000 0.0000 0.0000 0.0000 0.0000 0.0000 0.0000 0.0000 0.0000 0.0000 0.0000 0.0000 0.0000 0.0000 0.0000
0.0000 95.0000 0.0000 0.0000 0.0000 0.0000 0.0000 0.0000 0.0000 0.0000 0.0000 0.0000 0.0000 0.0000 0.0000 0.0000 0.0000 0.0000 0.0000 0.0000 0.0000 0.0000 0.0000 0.0000 -79.3067 2.6897 3.2448 -10.0487 -4.9975 7.8455 11.9123 -10.1368 -156.8333 68.0104 -14.0504 -0.8194 24.9504 0.0000 0.0000 10.4558 0.0000 0.0000 -20.0060 0.9667 -15.5347 3.5577 0.0000 0.0000 2.4356 0.0000 0.0000 -11.7792 -1.0341 -14.7712 2.6628 0.0000 0.0000 0.0997 0.0000 0.0000 -5.3895 -2.4281 -14.4696 5.0174 0.0000 0.0000 1.6345 0.0000 0.0000 -0.1563 -3.5044 -11.4258 4.7249 0.0000 0.0000 2.0788 0.0000 0.0000 0.0000 0.0000 0.0000 89.8748 -0.9171 0.9191 -1.7722 10.7428 10.3956 180.0661 6.0269 -24.9881 -58.3703 -11.8810 -3.5467 14.1352 0.0000 0.0000 3.2462 0.0000 0.0000 15.9669 0.6124 -2.4799 4.1316 0.0000 0.0000 3.6767 0.0000 0.0000 6.7263 0.5285 -4.2034 3.7032 0.0000 0.0000 1.9054 0.0000 0.0000 -0.1813 0.6248 -4.5486 0.8301 0.0000 0.0000 2.7607 0.0000 0.0000 -7.2664 0.5404 -4.5390 3.9932 0.0000 0.0000 3.2715 0.0000 0.0000 0.0000 0.0000 0.0000 0.0000 0.0000 0.0000 0.0000 0.0000 0.0000 0.0000 0.0000 0.0000 0.0000 0.0000 0.0000 0.0000 0.0000 0.0000
0.0000 95.0000 0.0000 0.0000 0.0000 0.0000 0.0000 0.0000 0.0000 0.0000 0.0000 0.0000 0.0000 0.0000 0.0000 0.0000 0.0000 0.0000 0.0000 0.0000 0.0000 0.0000 0.0000 0.0000 -79.3733 2.0454 2.4648 -10.2919 -4.9528 7.6727 12.0025 -9.2512 -156.0341 68.0104 -14.0504 -0.8194 24.9504 0.0000 0.0000 10.4558 0.0000 0.0000 -20.0060 0.9667 -15.5347 3.5577 0.0000 0.0000 2.4356 0.0000 0.0000 -11.7792 -1.0341 -14.7712 2.6628 0.0000 0.0000 0.0997 0.0000 0.0000 -5.3895 -2.4281 -14.4696 5.0174 0.0000 0.0000 1.6345 0.0000 0.0000 -0.1563 -3.5044 -11.4258 4.7249 0.0000 0.0000 2.0788 0.0000 0.0000 0.0000 0.0000 0.0000 89.8428 -1.0357 1.0386 -1.6562 10.7801 10.4547 180.0636 5.8550 -25.1664 -58.3703 -11.8810 -3.5467 14.1352 0.0000 0.0000 3.2462 0.0000 0.0000 15.9669 0.6124 -2.4799 4.1316 0.0000 0.0000 3.6767 0.0000 0.0000 6.7263 0.5285 -4.2034 3.7032 0.0000 0.0000 1.9054 0.0000 0.0000 -0.1813 0.6248 -4.5486 0.8301 0.0000 0.0000 2.7607 0.0000 0.0000 -7.2664 0.5404 -4.5390 3.9932 0.0000 0.0000 3.2715 0.0000 0.0000 0.0000 0.0000 0.0000 0.0000 0.0000 0.0000 0.0000 0.0000 0.0000 0.0000 0.0000 0.0000 0.0000 0.0000 0.0000 0.0000 0.0000 0.0000
0.0000 95.0000 0.0000 0.0000 0.0000 0.0000 0.0000 0.0000 0.0000 0.0000 0.0000 0.0000 0.0000 0.0000 0.0000 0.0000 0.0000 0.0000 0.0000 0.0000 0.0000 0.0000 0.0000 0.0000 -79.3577 1.6598 2.0007 -10.4828 -4.9053 7.5504 12.0723 -8.7071 -155.5396 68.0104 -14.0504 -0.8194 24.9504 0.0000 0.0000 10.4558 0.0000 0.0000 -20.0060 0.9667 -15.5347 3.5577 0.0000 0.0000 2.4356 0.0000 0.0000 -11.7792 -1.0341 -14.7712 2.6628 0.0000 0.0000 0.0997 0.0000 0.0000 -5.3895 -2.4281 -14.4696 5.0174 0.0000 0.0000 1.6345 0.0000 0.0000 -0.1563 -3.5044 -11.4258 4.7249 0.0000 0.0000 2.0788 0.0000 0.0000 0.0000 0.0000 0.0000 89.8354 -1.2715 1.2752 -1.6400 10.7188 10.3883 180.1132 5.6946 -25.3409 -58.3703 -11.8810 -3.5467 14.1352 0.0000 0.0000 3.2462 0.0000 0.0000 15.9669 0.6124 -2.4799 4.1316 0.0000 0.0000 3.6767 0.0000 0.0000 6.7263 0.5285 -4.2034 3.7032 0.0000 0.0000 1.9054 0.0000 0.0000 -0.1813 0.6248 -4.5486 0.8301 0.0000 0.0000 2.7607 0.0000 0.0000 -7.2664 0.5404 -4.5390 3.9932 0.0000 0.0000 3.2715 0.0000 0.0000 0.0000 0.0000 0.0000 0.0000 0.0000 0.0000 0.0000 0.0000 0.0000 0.0000 0.0000 0.0000 0.0000 0.0000 0.0000 0.0000 0.0000 0.0000
0.0000 95.0000 0.0000 0.0000 0.0000 0.0000 0.0000 0.0000 0.0000 0.0000 0.0000 0.0000 0.0000 0.0000 0.0000 0.0000 0.0000 0.0000 0.0000 0.0000 0.0000 0.0000 0.0000 0.0000 -79.3600 1.7256 2.0799 -10.4651 -4.7253 7.3019 12.1239 -8.5720 -155.4036 68.0104 -14.0504 -0.8194 24.9504 0.0000 0.0000 10.4558 0.0000 0.0000 -20.0060 0.9667 -15.5347 3.5577 0.0000 0.0000 2.4356 0.0000 0.0000 -11.7792 -1.0341 -14.7712 2.6628 0.0000 0.0000 0.0997 0.0000 0.0000 -5.3895 -2.4281 -14.4696 5.0174 0.0000 0.0000 1.6345 0.0000 0.0000 -0.1563 -3.5044 -11.4258 4.7249 0.0000 0.0000 2.0788 0.0000 0.0000 0.0000 0.0000 0.0000 89.7917 -1.3058 1.3105 -1.6827 10.4387 10.1139 180.0453 5.9178 -25.0984 -58.3703 -11.8810 -3.5467 14.1352 0.0000 0.0000 3.2462 0.0000 0.0000 15.9669 0.6124 -2.4799 4.1316 0.0000 0.0000 3.6767 0.0000 0.0000 6.7263 0.5285 -4.2034 3.7032 0.0000 0.0000 1.9054 0.0000 0.0000 -0.1813 0.6248 -4.5486 0.8301 0.0000 0.0000 2.7607 0.0000 0.0000 -7.2664 0.5404 -4.5390 3.9932 0.0000 0.0000 3.2715 0.0000 0.0000 0.0000 0.0000 0.0000 0.0000 0.0000 0.0000 0.0000 0.0000 0.0000 0.0000 0.0000 0.0000 0.0000 0.0000 0.0000 0.0000 0.0000 0.0000
0.0000 95.0000 0.0000 0.0000 0.0000 0.0000 0.0000 0.0000 0.0000 0.0000 0.0000 0.0000 0.0000 0.0000 0.0000 0.0000 0.0000 0.0000 0.0000 0.0000 0.0000 0.0000 0.0000 0.0000 -79.3001 1.3712 1.6545 -10.6910 -4.7382 7.2815 12.1603 -8.1421 -155.0213 68.0104 -14.0504 -0.8194 24.9504 0.0000 0.0000 10.4558 0.0000 0.0000 -20.0060 0.9667 -15.5347 3.5577 0.0000 0.0000 2.4356 0.0000 0.0000 -11.7792 -1.0341 -14.7712 2.6628 0.0000 0.0000 0.0997 0.0000 0.0000 -5.3895 -2.4281 -14.4696 5.0174 0.0000 0.0000 1.6345 0.0000 0.0000 -0.1563 -3.5044 -11.4258 4.7249 0.0000 0.0000 2.0788 0.0000 0.0000 0.0000 0.0000 0.0000 89.7673 -1.5953 1.6017 -1.8270 10.3769 10.0149 180.2720 5.7800 -25.2767 -58.3703 -11.8810 -3.5467 14.1352 0.0000 0.0000 3.2462 0.0000 0.0000 15.9669 0.6124 -2.4799 4.1316 0.0000 0.0000 3.6767 0.0000 0.0000 6.7263 0.5285 -4.2034 3.7032 0.0000 0.0000 1.9054 0.0000 0.0000 -0.1813 0.6248 -4.5486 0.8301 0.0000 0.0000 2.7607 0.0000 0.0000 -7.2664 0.5404 -4.5390 3.9932 0.0000 0.0000 3.2715 0.0000 0.0000 0.0000 0.0000 0.0000 0.0000 0.0000 0.0000 0.0000 0.0000 0.0000 0.0000 0.0000 0.0000 0.0000 0.0000 0.0000 0.0000 0.0000 0.0000
